<?xml version="1.0" encoding="utf-8"?>
<svg
  version="1.1"
  xmlns="http://www.w3.org/2000/svg"
  xmlns:xlink="http://www.w3.org/1999/xlink"
  width="428"
  viewBox="0 0 428 88"
>
  <defs id="SvgjsDefs2462"></defs>
  <g
    featurekey="symbolContainer"
    transform="matrix(1,0,0,1,0,0)"
    fill="#3d84a8"
  >
    <rect width="84" height="85"></rect>
  </g>
  <g
    featurekey="monogramFeature-0"
    transform="matrix(1.2943787274417928,0,0,1.2943787274417928,16.81582828111656,-7.522189363720894)"
    fill="#ffffff"
  >
    <path
      d="M3.9 60 c-0.84 0 -1.44 -0.42 -1.44 -1.14 l0 -0.24 c0 -1.68 2.4 -2.4 2.4 -5.22 l0 -29.4 c0 -2.82 -2.4 -3.54 -2.4 -5.22 l0 -0.24 c0 -0.72 0.54 -1.14 1.38 -1.14 l27.48 0 c1.32 0 1.8 0.54 2.04 1.86 l1.44 7.56 c0.18 1.08 -0.48 1.74 -1.5 1.74 l-0.3 0 c-3.36 0 -5.1 -7.02 -9.36 -7.02 l-5.28 0 c-1.44 0 -2.7 0.72 -2.7 2.94 l0 11.76 l6.3 0 c3.18 0 3.54 -4.8 5.28 -4.8 l0.48 0 c0.72 0 1.2 0.54 1.2 1.38 l0 10.8 c0 0.84 -0.48 1.38 -1.2 1.38 l-0.48 0 c-1.74 0 -2.1 -4.56 -5.28 -4.56 l-6.3 0 l0 11.04 c0 2.04 0.84 4.38 3.6 4.38 l6.3 0 c4.26 0 5.28 -7.44 8.88 -7.44 l0.54 0 c0.96 0 1.38 1.02 1.26 1.8 l-1.32 7.86 c-0.24 1.32 -0.72 1.92 -2.1 1.92 l-28.92 0 z"
    ></path>
  </g>
  <g
    id="SvgjsG2465"
    featurekey="nameFeature-0"
    transform="matrix(1.1540926172205817,0,0,1.1540926172205817,101.23017870923624,8.474035318627294)"
    fill="#3d84a8"
  >
    <path
      d="M5.72 36.88 l13.32 0 l0 3.12 l-14.12 0 l-2.52 0 l0 -28 l3.32 0 l12.96 0 l0 3.12 l-12.96 0 l0 9.28 l10.08 0 l0 3.04 l-10.08 0 l0 9.44 z M32.68 18.84 c3.68 0 6.52 2.04 7.48 4.28 l0 -3.92 l3.28 0 l0 20.8 l-3.28 0 l0 -4 c-0.96 2.4 -3.8 4.4 -7.48 4.4 c-4.72 0 -10.44 -3.56 -10.44 -10.8 c0 -7.16 5.72 -10.76 10.44 -10.76 z M33.04 21.76 c-3.52 0 -7.6 2.6 -7.6 7.84 c0 5.28 4.08 7.88 7.6 7.88 c3.56 0 7.28 -2.52 7.28 -7.88 c0 -5.32 -3.72 -7.84 -7.28 -7.84 z M58.12 24.240000000000002 c-0.8 -1.68 -2.12 -2.72 -4.04 -2.72 c-2 0 -3.36 1.2 -3.36 2.8 c0 1.44 0.76 2.48 2.84 3.24 l2.08 0.72 c3.48 1.24 6.04 2.52 6.04 6.16 c0 3.96 -3.84 6 -7.4 6 c-3.6 0 -6.8 -2.08 -7.56 -5.56 l2.64 -0.8 c0.64 2.28 2.52 3.68 4.92 3.68 c2.08 0 4.16 -1.2 4.16 -3.28 c0 -1.8 -1.24 -2.76 -3.4 -3.52 l-2.32 -0.84 c-3.64 -1.28 -5.2 -3.32 -5.2 -5.8 c0 -3.24 2.88 -5.48 6.48 -5.48 c3.36 0 5.72 1.84 6.84 4.6 z M80.36 19.16 l3.28 0 l-12.64 28.44 l-3.28 0 l3.72 -8.28 l-9 -20.16 l3.28 0 l7.32 16.56 z M102.36 36.88 l13.32 0 l0 3.12 l-14.12 0 l-2.52 0 l0 -28 l3.32 0 l12.96 0 l0 3.12 l-12.96 0 l0 9.28 l10.08 0 l0 3.04 l-10.08 0 l0 9.44 z M144.64000000000001 18.88 c3.76 0 7.72 2.36 7.72 9 l0 12.12 l-3.24 0 l0 -12.2 c0 -4.08 -2.16 -6.04 -5.28 -6.04 c-3.52 0 -5.6 2.92 -6.16 5.88 l0 12.36 l-3.24 0 l0 -12.2 c0 -4.08 -2.52 -6.04 -5.32 -6.04 c-3.72 0 -5.64 3.16 -6.08 5.88 l0 12.36 l-3.28 0 l0 -20.8 l3.28 0 l0 4.88 c0.2 -1.48 2.24 -5.2 6.72 -5.2 c2.76 0 6.04 1.56 7.32 5.24 c0.72 -2.16 3.24 -5.24 7.56 -5.24 z M166 18.84 c3.68 0 6.52 2.04 7.48 4.28 l0 -3.92 l3.28 0 l0 20.8 l-3.28 0 l0 -4 c-0.96 2.4 -3.8 4.4 -7.48 4.4 c-4.72 0 -10.44 -3.56 -10.44 -10.8 c0 -7.16 5.72 -10.76 10.44 -10.76 z M166.35999999999999 21.76 c-3.52 0 -7.6 2.6 -7.6 7.84 c0 5.28 4.08 7.88 7.6 7.88 c3.56 0 7.28 -2.52 7.28 -7.88 c0 -5.32 -3.72 -7.84 -7.28 -7.84 z M184.6 11.719999999999999 l0 2.92 l-3.28 0 l0 -2.92 l3.28 0 z M184.6 19.2 l0 20.8 l-3.28 0 l0 -20.8 l3.28 0 z M192.44 11.719999999999999 l0 28.28 l-3.28 0 l0 -28.28 l3.28 0 z M218.24 12 c6.28 0 9.92 3.84 9.92 9.04 s-3.64 8.88 -9.92 8.88 l-5.8 0 l0 10.08 l-3.32 0 l0 -28 l9.12 0 z M218.16 26.96 c4.04 0 6.68 -2.08 6.68 -5.92 c0 -3.88 -2.64 -5.92 -6.68 -5.92 l-5.72 0 l0 11.84 l5.72 0 z M242.84 18.88 c0.36 0 0.68 0 1 0.08 l0 3.08 c-0.32 -0.08 -0.68 -0.08 -0.96 -0.08 c-3.96 0 -7.2 2.84 -7.76 7.52 l0 10.52 l-3.28 0 l0 -20.8 l3.28 0 l0 5.48 c0.76 -3.08 3.6 -5.8 7.72 -5.8 z M257.08 18.84 c4.72 0 10.68 3.6 10.68 10.8 s-5.96 10.76 -10.68 10.76 s-10.64 -3.56 -10.64 -10.76 s5.92 -10.8 10.64 -10.8 z M257.08 21.76 c-3.36 0 -7.44 2.6 -7.44 7.88 c0 5.24 4.08 7.84 7.44 7.84 c3.4 0 7.48 -2.6 7.48 -7.84 c0 -5.28 -4.08 -7.88 -7.48 -7.88 z"
    ></path>
  </g>
</svg>
