<svg xmlns="http://www.w3.org/2000/svg" viewBox="0 0 400 70" height="70" width="400">
  <g>
    <svg viewBox="0 0 502.0384269006614 88.358524112126" height="70" width="400">
      <g transform="matrix(1,0,0,1,106.51842690066144,5.717277804094493)">
        <svg viewBox="0 0 400 76.92396850393702" height="76.92396850393702" width="400">
          <g>
            <svg viewBox="0 0 400 76.92396850393702" height="76.92396850393702" width="400">
              <g>
                <svg viewBox="0 0 400 76.92396850393702" height="76.92396850393702" width="400">
                  <g transform="matrix(1,0,0,1,0,0)">
                    <svg width="400" viewBox="0.9500000476837158 -36.349998474121094 190.49000549316406 37.04999923706055" height="76.92396850393702" data-palette-color="#202046">
                      <path d="M7.3-36L21.8-36Q27.5-36 29.9-33.5L29.9-33.5Q31.7-31.6 31.7-28.7L31.7-28.7Q31.7-27.7 31.5-26.6L31.5-26.6 31.05-24.2Q30.5-21.35 28.93-19.75 27.35-18.15 26.15-18.15L26.15-18.15 26.1-17.75Q27.5-17.75 28.95-16.2 30.4-14.65 30.4-12.55L30.4-12.55Q30.4-11.7 30.2-10.75L30.2-10.75 29.9-9.2Q29.1-4.9 26.08-2.45 23.05 0 17.65 0L17.65 0 0.95 0 7.3-36ZM17.3-14.7L17.3-14.7 12.55-14.7 11.35-7.8 16.1-7.8Q16.2-7.8 16.3-7.8L16.3-7.8Q18.6-7.8 19.95-8.88 21.3-9.95 21.3-11.5L21.3-11.5Q21.3-14.7 17.3-14.7ZM18.65-28.2L18.65-28.2 14.9-28.2 13.6-20.75 17.3-20.75Q22.1-20.75 22.1-24.95L22.1-24.95Q22.1-26.4 21.23-27.3 20.35-28.2 18.65-28.2ZM60.3-7.8L58.9 0 33.8 0 40.15-36 65.25-36 63.85-28.2 47.75-28.2 46.6-21.45 59.9-21.45 58.5-13.65 45.2-13.65 44.2-7.8 60.3-7.8ZM91.95 0L82.45 0 82.75-7.85 74.4-7.85 71.95 0 62.4 0 75.25-36 91.75-36 91.95 0ZM83.55-27.25L80.4-27.25 76.45-14.55 83-14.55 83.55-27.25ZM109.34 0.7L109.34 0.7Q102.19 0.7 99.44-2.4L99.44-2.4Q97.54-4.6 97.54-8.55L97.54-8.55Q97.54-10.25 97.89-12.2L97.89-12.2 99.94-23.7Q102.19-36.35 116.19-36.35L116.19-36.35Q121.99-36.35 124.99-33.88 127.99-31.4 127.99-27.1L127.99-27.1Q127.99-25.1 127.42-23.13 126.84-21.15 126.29-20.2L126.29-20.2 125.74-19.2 116.89-19.2Q118.54-21.1 118.54-24.6L118.54-24.6Q118.54-26.45 117.59-27.53 116.64-28.6 114.79-28.6L114.79-28.6Q109.74-28.6 108.79-23L108.79-23 107.04-12.9Q106.79-11.6 106.79-10.35L106.79-10.35Q106.79-7.05 110.74-7.05L110.74-7.05Q115.49-7.05 116.44-12.4L116.44-12.4 125.44-12.4 125.19-10.95Q123.19 0.7 109.34 0.7ZM155.94 0L146.44 0 146.74-7.85 138.39-7.85 135.94 0 126.39 0 139.24-36 155.74-36 155.94 0ZM147.54-27.25L144.39-27.25 140.44-14.55 146.99-14.55 147.54-27.25ZM169.89-10.25L169.89-10.25Q169.89-6.8 174.86-6.8 179.84-6.8 179.84-9.9L179.84-9.9Q179.84-11.55 178.14-12.6 176.44-13.65 174.01-14.35 171.59-15.05 169.16-15.98 166.74-16.9 165.04-18.88 163.34-20.85 163.34-23.8L163.34-23.8Q163.34-36.35 179.49-36.35L179.49-36.35Q185.39-36.35 188.41-34.13 191.44-31.9 191.44-27.95L191.44-27.95Q191.44-26.5 191.06-25.18 190.69-23.85 190.29-23.3L190.29-23.3 189.89-22.7 181.04-22.7Q182.14-23.85 182.14-25.6L182.14-25.6Q182.14-28.85 177.89-28.85L177.89-28.85Q172.54-28.85 172.54-25.45L172.54-25.45Q172.54-23.75 174.24-22.75 175.94-21.75 178.36-21.18 180.79-20.6 183.24-19.75 185.69-18.9 187.39-16.93 189.09-14.95 189.09-11.8L189.09-11.8Q189.09-5.45 185.29-2.38 181.49 0.7 173.59 0.7 165.69 0.7 162.79-2.1L162.79-2.1Q160.64-4.2 160.64-7.9L160.64-7.9Q160.64-9.3 160.94-10.95L160.94-10.95 161.09-11.75 170.09-11.75 169.99-11.15Q169.89-10.65 169.89-10.25Z" opacity="1" transform="matrix(1,0,0,1,0,0)" fill="#202046" class="undefined-text-0" data-fill-palette-color="primary" id="text-0"/>
                    </svg>
                  </g>
                </svg>
              </g>
            </svg>
          </g>
        </svg>
      </g>
      <g>
        <svg viewBox="0 0 88.358524112126 88.358524112126" height="88.358524112126" width="88.358524112126">
          <g>
            <svg/>
          </g>
          <g id="icon-0">
            <svg viewBox="0 0 88.358524112126 88.358524112126" height="88.358524112126" width="88.358524112126">
              <g>
                <rect width="80.34080618343309" height="80.34080618343309" x="4.008858964346459" y="4.008858964346459" fill="#001f3f" data-fill-palette-color="accent"/>
                <rect width="80.34080618343309" height="80.34080618343309" x="8.017717928692917" y="8.881784197001252e-16" fill="#001f3f" opacity="0.5" data-fill-palette-color="accent"/>
              </g>
              <g transform="matrix(1,0,0,1,11.453882755275593,33.867871930980925)">
                <svg viewBox="0 0 65.45075860157482 20.62278025016416" height="20.62278025016416" width="65.45075860157482">
                  <g>
                    <svg xmlns="http://www.w3.org/2000/svg" viewBox="10.825593948364258 38.09199905395508 80.66622924804688 25.41699981689453" xml:space="preserve" x="0" y="0" height="20.62278025016416" width="65.45075860157482" class="icon-x-0" data-fill-palette-color="background" id="x-0">
                      <path d="M31.376 42.592c-7.333 0-11.834 2.75-11.834 4.625s1.584 3.625 9.667 3.625 24.5-10.25 41.25-10.25c17.083 0.002 17.083 8.583 17.083 8.583s-2.254-1.958-13.583-1.958c-16.917 0-32.667 9.125-43.874 9.125-11.209 0-14.108-5.008-14.108-8.925 0-3.375 4.399-9.325 15.232-9.325s12.667 6.583 12.667 6.583-5.167-2.083-12.5-2.083z m-20.5 6.167s-2.167 14.75 21.916 14.75c24.084 0 33.251-10.167 51.918-10.167 5.654 0.12 6.666 2.792 6.666 2.792s2.25-7.375-13.084-7.375c-15.332 0-33.308 9.917-47.832 9.917-14.525 0-19.584-9.917-19.584-9.917z" fill="#ffffff" data-fill-palette-color="background"/>
                    </svg>
                  </g>
                </svg>
              </g>
            </svg>
          </g>
        </svg>
      </g>
    </svg>
  </g>
</svg>